<mxfile host="app.diagrams.net" modified="2024-06-12T09:00:35.990Z" agent="Mozilla/5.0 (Windows NT 10.0; Win64; x64) AppleWebKit/537.36 (KHTML, like Gecko) Chrome/125.0.0.0 Safari/537.36" etag="1d3VokFXNNHFwYTx5OAv" version="24.5.2" type="github">
  <diagram name="Page-1" id="C6PfTZYQSkMuTwpZSSdW">
    <mxGraphModel dx="1900" dy="522" grid="1" gridSize="10" guides="1" tooltips="1" connect="1" arrows="1" fold="1" page="1" pageScale="1" pageWidth="850" pageHeight="1100" math="0" shadow="0">
      <root>
        <mxCell id="0" />
        <mxCell id="1" parent="0" />
        <mxCell id="VFAvfn8NLfx5fy9ZW7HV-1" value="Transaction: &lt;br&gt;Entry_date, &lt;br&gt;outgoing_date&lt;br&gt;Src_acct&lt;br&gt;Target_acct" style="rounded=0;whiteSpace=wrap;html=1;" vertex="1" parent="1">
          <mxGeometry x="630" width="180" height="180" as="geometry" />
        </mxCell>
        <mxCell id="VFAvfn8NLfx5fy9ZW7HV-2" value="Kafka" style="rounded=1;whiteSpace=wrap;html=1;" vertex="1" parent="1">
          <mxGeometry x="490" y="210" width="120" height="60" as="geometry" />
        </mxCell>
        <mxCell id="VFAvfn8NLfx5fy9ZW7HV-4" value="" style="endArrow=classic;html=1;rounded=0;exitX=1;exitY=0.345;exitDx=0;exitDy=0;exitPerimeter=0;" edge="1" parent="1" source="VFAvfn8NLfx5fy9ZW7HV-18">
          <mxGeometry width="50" height="50" relative="1" as="geometry">
            <mxPoint x="190" y="260" as="sourcePoint" />
            <mxPoint x="290" y="230" as="targetPoint" />
          </mxGeometry>
        </mxCell>
        <mxCell id="VFAvfn8NLfx5fy9ZW7HV-5" value="ElasticSearch" style="rounded=1;whiteSpace=wrap;html=1;" vertex="1" parent="1">
          <mxGeometry x="920" y="230" width="120" height="60" as="geometry" />
        </mxCell>
        <mxCell id="VFAvfn8NLfx5fy9ZW7HV-6" value="" style="endArrow=classic;html=1;rounded=0;" edge="1" parent="1">
          <mxGeometry width="50" height="50" relative="1" as="geometry">
            <mxPoint x="610" y="248" as="sourcePoint" />
            <mxPoint x="720" y="250" as="targetPoint" />
          </mxGeometry>
        </mxCell>
        <mxCell id="VFAvfn8NLfx5fy9ZW7HV-12" value="TarnsactnioService&lt;div&gt;(Write)&lt;/div&gt;" style="rounded=1;whiteSpace=wrap;html=1;" vertex="1" parent="1">
          <mxGeometry x="290" y="200" width="120" height="60" as="geometry" />
        </mxCell>
        <mxCell id="VFAvfn8NLfx5fy9ZW7HV-14" value="TarnsactnioReadService&lt;div&gt;&lt;br&gt;&lt;/div&gt;" style="rounded=1;whiteSpace=wrap;html=1;" vertex="1" parent="1">
          <mxGeometry x="290" y="290" width="120" height="60" as="geometry" />
        </mxCell>
        <mxCell id="VFAvfn8NLfx5fy9ZW7HV-15" value="" style="endArrow=classic;html=1;rounded=0;entryX=0;entryY=1;entryDx=0;entryDy=0;" edge="1" parent="1" target="VFAvfn8NLfx5fy9ZW7HV-5">
          <mxGeometry width="50" height="50" relative="1" as="geometry">
            <mxPoint x="410" y="340" as="sourcePoint" />
            <mxPoint x="460" y="290" as="targetPoint" />
          </mxGeometry>
        </mxCell>
        <mxCell id="VFAvfn8NLfx5fy9ZW7HV-16" value="" style="endArrow=classic;html=1;rounded=0;exitX=1;exitY=0.547;exitDx=0;exitDy=0;exitPerimeter=0;entryX=0;entryY=0.5;entryDx=0;entryDy=0;" edge="1" parent="1" source="VFAvfn8NLfx5fy9ZW7HV-18" target="VFAvfn8NLfx5fy9ZW7HV-14">
          <mxGeometry width="50" height="50" relative="1" as="geometry">
            <mxPoint x="190" y="300" as="sourcePoint" />
            <mxPoint x="270" y="320" as="targetPoint" />
          </mxGeometry>
        </mxCell>
        <mxCell id="VFAvfn8NLfx5fy9ZW7HV-17" value="Load Balancer" style="rounded=1;whiteSpace=wrap;html=1;" vertex="1" parent="1">
          <mxGeometry x="-90" y="230" width="120" height="60" as="geometry" />
        </mxCell>
        <mxCell id="VFAvfn8NLfx5fy9ZW7HV-18" value="" style="rounded=1;whiteSpace=wrap;html=1;" vertex="1" parent="1">
          <mxGeometry x="60" y="180" width="120" height="210" as="geometry" />
        </mxCell>
        <mxCell id="VFAvfn8NLfx5fy9ZW7HV-19" value="" style="endArrow=classic;html=1;rounded=0;entryX=-0.013;entryY=0.379;entryDx=0;entryDy=0;entryPerimeter=0;" edge="1" parent="1" target="VFAvfn8NLfx5fy9ZW7HV-18">
          <mxGeometry width="50" height="50" relative="1" as="geometry">
            <mxPoint x="30" y="260" as="sourcePoint" />
            <mxPoint x="80" y="210" as="targetPoint" />
          </mxGeometry>
        </mxCell>
        <mxCell id="VFAvfn8NLfx5fy9ZW7HV-20" value="API Gateway" style="rounded=1;whiteSpace=wrap;html=1;" vertex="1" parent="1">
          <mxGeometry x="60" y="190" width="120" height="60" as="geometry" />
        </mxCell>
        <mxCell id="VFAvfn8NLfx5fy9ZW7HV-21" value="API Gateway" style="rounded=1;whiteSpace=wrap;html=1;" vertex="1" parent="1">
          <mxGeometry x="60" y="300" width="120" height="60" as="geometry" />
        </mxCell>
        <mxCell id="VFAvfn8NLfx5fy9ZW7HV-22" value="Actor" style="shape=umlActor;verticalLabelPosition=bottom;verticalAlign=top;html=1;outlineConnect=0;" vertex="1" parent="1">
          <mxGeometry x="-230" y="230" width="30" height="60" as="geometry" />
        </mxCell>
        <mxCell id="VFAvfn8NLfx5fy9ZW7HV-23" value="" style="endArrow=classic;html=1;rounded=0;entryX=-0.023;entryY=0.627;entryDx=0;entryDy=0;entryPerimeter=0;" edge="1" parent="1" target="VFAvfn8NLfx5fy9ZW7HV-17">
          <mxGeometry width="50" height="50" relative="1" as="geometry">
            <mxPoint x="-190" y="270" as="sourcePoint" />
            <mxPoint x="-140" y="220" as="targetPoint" />
          </mxGeometry>
        </mxCell>
        <mxCell id="VFAvfn8NLfx5fy9ZW7HV-24" value="JSON Parser" style="rounded=1;whiteSpace=wrap;html=1;" vertex="1" parent="1">
          <mxGeometry x="470" y="90" width="120" height="60" as="geometry" />
        </mxCell>
        <mxCell id="VFAvfn8NLfx5fy9ZW7HV-26" value="" style="endArrow=classic;html=1;rounded=0;entryX=-0.017;entryY=0.387;entryDx=0;entryDy=0;entryPerimeter=0;" edge="1" parent="1" target="VFAvfn8NLfx5fy9ZW7HV-2">
          <mxGeometry width="50" height="50" relative="1" as="geometry">
            <mxPoint x="410" y="230" as="sourcePoint" />
            <mxPoint x="460" y="180" as="targetPoint" />
          </mxGeometry>
        </mxCell>
        <mxCell id="VFAvfn8NLfx5fy9ZW7HV-27" value="" style="endArrow=classic;html=1;rounded=0;entryX=0.577;entryY=1.067;entryDx=0;entryDy=0;entryPerimeter=0;" edge="1" parent="1" target="VFAvfn8NLfx5fy9ZW7HV-24">
          <mxGeometry width="50" height="50" relative="1" as="geometry">
            <mxPoint x="510" y="210" as="sourcePoint" />
            <mxPoint x="560" y="160" as="targetPoint" />
          </mxGeometry>
        </mxCell>
        <mxCell id="VFAvfn8NLfx5fy9ZW7HV-28" value="" style="endArrow=classic;html=1;rounded=0;entryX=0.843;entryY=0.027;entryDx=0;entryDy=0;entryPerimeter=0;" edge="1" parent="1" target="VFAvfn8NLfx5fy9ZW7HV-2">
          <mxGeometry width="50" height="50" relative="1" as="geometry">
            <mxPoint x="560" y="150" as="sourcePoint" />
            <mxPoint x="610" y="100" as="targetPoint" />
          </mxGeometry>
        </mxCell>
        <mxCell id="VFAvfn8NLfx5fy9ZW7HV-29" value="XML" style="rounded=1;whiteSpace=wrap;html=1;" vertex="1" parent="1">
          <mxGeometry x="340" y="90" width="120" height="60" as="geometry" />
        </mxCell>
        <mxCell id="VFAvfn8NLfx5fy9ZW7HV-30" value="" style="endArrow=classic;html=1;rounded=0;entryX=0.75;entryY=1;entryDx=0;entryDy=0;" edge="1" parent="1" target="VFAvfn8NLfx5fy9ZW7HV-29">
          <mxGeometry width="50" height="50" relative="1" as="geometry">
            <mxPoint x="490" y="220" as="sourcePoint" />
            <mxPoint x="540" y="170" as="targetPoint" />
          </mxGeometry>
        </mxCell>
        <mxCell id="VFAvfn8NLfx5fy9ZW7HV-31" value="" style="endArrow=classic;html=1;rounded=0;entryX=0.117;entryY=0.027;entryDx=0;entryDy=0;entryPerimeter=0;" edge="1" parent="1" target="VFAvfn8NLfx5fy9ZW7HV-2">
          <mxGeometry width="50" height="50" relative="1" as="geometry">
            <mxPoint x="450" y="150" as="sourcePoint" />
            <mxPoint x="500" y="100" as="targetPoint" />
          </mxGeometry>
        </mxCell>
        <mxCell id="VFAvfn8NLfx5fy9ZW7HV-32" value="Elastic Publisher" style="rounded=1;whiteSpace=wrap;html=1;" vertex="1" parent="1">
          <mxGeometry x="720" y="220" width="120" height="60" as="geometry" />
        </mxCell>
        <mxCell id="VFAvfn8NLfx5fy9ZW7HV-33" value="" style="endArrow=classic;html=1;rounded=0;entryX=0;entryY=0.5;entryDx=0;entryDy=0;" edge="1" parent="1" target="VFAvfn8NLfx5fy9ZW7HV-5">
          <mxGeometry width="50" height="50" relative="1" as="geometry">
            <mxPoint x="840" y="250" as="sourcePoint" />
            <mxPoint x="890" y="200" as="targetPoint" />
          </mxGeometry>
        </mxCell>
      </root>
    </mxGraphModel>
  </diagram>
</mxfile>
